<?xml version="1.0" encoding="UTF-8"?><svg id="Layer_1" xmlns="http://www.w3.org/2000/svg" viewBox="0 0 216.41 46.26"><metadata><?xpacket begin="﻿" id="W5M0MpCehiHzreSzNTczkc9d"?>
<x:xmpmeta xmlns:x="adobe:ns:meta/" x:xmptk="Adobe XMP Core 7.1-c000 79.4d2f597, 2021/09/01-20:51:22        ">
   <rdf:RDF xmlns:rdf="http://www.w3.org/1999/02/22-rdf-syntax-ns#">
      <rdf:Description rdf:about=""
            xmlns:lr="http://ns.adobe.com/lightroom/1.0/"
            xmlns:dc="http://purl.org/dc/elements/1.1/"
            xmlns:xmp="http://ns.adobe.com/xap/1.0/"
            xmlns:xmpMM="http://ns.adobe.com/xap/1.0/mm/"
            xmlns:stEvt="http://ns.adobe.com/xap/1.0/sType/ResourceEvent#">
         <lr:hierarchicalSubject>
            <rdf:Bag>
               <rdf:li>LSA_dept</rdf:li>
               <rdf:li>LSA_logo</rdf:li>
               <rdf:li>LSA_logo|horizontal</rdf:li>
               <rdf:li>LSA_logo|formal</rdf:li>
               <rdf:li>LSA_logo|4-color</rdf:li>
               <rdf:li>LSA_dept|U|Undergraduate Program in Neuroscience (UPIN)</rdf:li>
            </rdf:Bag>
         </lr:hierarchicalSubject>
         <dc:subject>
            <rdf:Bag>
               <rdf:li>LSA_dept</rdf:li>
               <rdf:li>LSA_logo</rdf:li>
               <rdf:li>horizontal</rdf:li>
               <rdf:li>formal</rdf:li>
               <rdf:li>4-color</rdf:li>
               <rdf:li>Undergraduate Program in Neuroscience (UPIN)</rdf:li>
            </rdf:Bag>
         </dc:subject>
         <xmp:MetadataDate>2023-08-17T23:21:31-04:00</xmp:MetadataDate>
         <xmpMM:InstanceID>xmp.iid:43e31c87-028a-4995-a866-163e5d79a347</xmpMM:InstanceID>
         <xmpMM:DocumentID>xmp.did:b21e3aef-6652-478e-b436-ad912af3639f</xmpMM:DocumentID>
         <xmpMM:OriginalDocumentID>xmp.did:b21e3aef-6652-478e-b436-ad912af3639f</xmpMM:OriginalDocumentID>
         <xmpMM:History>
            <rdf:Seq>
               <rdf:li>
                  <rdf:Description>
                     <stEvt:action>saved</stEvt:action>
                     <stEvt:instanceID>xmp.iid:b21e3aef-6652-478e-b436-ad912af3639f</stEvt:instanceID>
                     <stEvt:when>2023-08-17T18:59:29-04:00</stEvt:when>
                     <stEvt:softwareAgent>Adobe Bridge 2023</stEvt:softwareAgent>
                     <stEvt:changed>/metadata</stEvt:changed>
                  </rdf:Description>
               </rdf:li>
               <rdf:li>
                  <rdf:Description>
                     <stEvt:action>saved</stEvt:action>
                     <stEvt:instanceID>xmp.iid:43e31c87-028a-4995-a866-163e5d79a347</stEvt:instanceID>
                     <stEvt:when>2023-08-17T23:21:31-04:00</stEvt:when>
                     <stEvt:softwareAgent>Adobe Bridge 2023</stEvt:softwareAgent>
                     <stEvt:changed>/metadata</stEvt:changed>
                  </rdf:Description>
               </rdf:li>
            </rdf:Seq>
         </xmpMM:History>
      </rdf:Description>
   </rdf:RDF>
</x:xmpmeta>
                                                                                                    
                                                                                                    
                                                                                                    
                                                                                                    
                                                                                                    
                                                                                                    
                                                                                                    
                                                                                                    
                                                                                                    
                                                                                                    
                      
<?xpacket end="w"?></metadata>
<defs><style>.cls-1{fill:#002e5e;}.cls-2{fill:#ffcf01;}</style></defs><polygon class="cls-2" points="28.43 32.16 20.47 21.28 20.47 29.2 23.63 29.2 23.63 37.01 9 37.01 9 29.2 11.96 29.2 11.96 17.04 9 17.04 9 9.22 20.5 9.22 28.43 20.18 36.36 9.22 47.85 9.22 47.85 17.04 44.89 17.04 44.89 29.2 47.85 29.2 47.85 37.01 33.22 37.01 33.22 29.2 36.38 29.2 36.38 21.28 28.43 32.16"/><rect class="cls-1" x="55.69" y="9.23" width=".4" height="27.8"/><path class="cls-1" d="m64.01,9.23h2.54v25.64h4.2v2.16h-6.74V9.23Z"/><path class="cls-1" d="m78.87,13.04c0-1.08-.27-1.89-1.46-1.89s-1.46.81-1.46,1.89v2.93c0,.89.15,1.77.58,2.5l4.04,6.93c.58.96.92,2.15.92,3.39v4.39c0,2.62-1.54,4.08-4.08,4.08-2.81,0-4.16-1.27-4.16-4.08v-3.81h2.54v3.66c0,1.31.5,2.08,1.62,2.08,1.04,0,1.54-.77,1.54-2.08v-3.89c0-.96-.19-1.69-.73-2.66l-3.74-6.51c-.69-1.19-1.08-2.12-1.08-3.54v-3.35c0-2.73,1.42-4.08,4-4.08,2.85,0,4,1.35,4,3.89v3.54h-2.54v-3.39Z"/><path class="cls-1" d="m91.34,29.33h-4.47l-1.04,7.7h-2.54l4.08-27.8h3.46l4.08,27.8h-2.54l-1.04-7.7Zm-2.19-18.17h-.08l-1.92,16.02h3.93l-1.92-16.02Z"/><path class="cls-1" d="m103.17,12.49c0,.68,0,1.64,1.07,1.64s1.07-.96,1.07-1.64v-3.26h.46v3.6c0,1.34-.71,1.69-1.53,1.69s-1.53-.35-1.53-1.69v-3.6h.46v3.26Z"/><path class="cls-1" d="m107.36,14.41v-5.19h.71l2.12,4.56h.01v-4.56h.46v5.19h-.7l-2.13-4.61h-.01v4.61h-.46Z"/><path class="cls-1" d="m112.31,9.22h1.38c1.46,0,1.65.85,1.65,2.62s-.25,2.57-1.83,2.57h-1.2v-5.19Zm.46,4.8h.57c1.4,0,1.54-.37,1.54-2.49,0-1.49-.2-1.92-1.49-1.92h-.61v4.41Z"/><path class="cls-1" d="m119.39,9.22v.39h-1.91v1.94h1.82v.39h-1.82v2.08h1.96v.39h-2.42v-5.19h2.37Z"/><path class="cls-1" d="m121.42,11.9v2.52h-.46v-5.19h1.44c1.01,0,1.26.33,1.26,1.24,0,.65-.11,1.08-.81,1.24h0c.73.17.78.25.78,2.11,0,.2.04.4.05.6h-.44c-.04-.15-.06-1.01-.07-1.29,0-.22.15-1.22-.86-1.22h-.88Zm0-.39h.75c.7,0,1.02-.18,1.02-1.05,0-.71-.28-.85-.83-.85h-.95v1.9Z"/><path class="cls-1" d="m127.79,12.09h-1.06v-.39h1.52v2.59c-.46.14-.95.22-1.44.22-1.7,0-1.58-1.69-1.58-2.69s-.12-2.7,1.58-2.7c1,0,1.51.42,1.49,1.43h-.46c0-.68-.3-1.04-1.03-1.04-1.13,0-1.12,1-1.12,2.31s-.01,2.31,1.12,2.31c.4,0,.73-.06.98-.15v-1.88Z"/><path class="cls-1" d="m130.45,11.9v2.52h-.46v-5.19h1.44c1.01,0,1.26.33,1.26,1.24,0,.65-.11,1.08-.81,1.24h0c.73.17.78.25.78,2.11,0,.2.04.4.05.6h-.44c-.04-.15-.06-1.01-.07-1.29,0-.22.14-1.22-.86-1.22h-.88Zm0-.39h.75c.7,0,1.02-.18,1.02-1.05,0-.71-.28-.85-.83-.85h-.95v1.9Z"/><path class="cls-1" d="m136.02,9.22l1.63,5.19h-.49l-.42-1.37h-2.05l-.41,1.37h-.46l1.65-5.19h.55Zm.6,3.44l-.89-2.93h-.01l-.88,2.93h1.79Z"/><path class="cls-1" d="m139.11,9.22h1.38c1.46,0,1.65.85,1.65,2.62s-.25,2.57-1.83,2.57h-1.2v-5.19Zm.46,4.8h.57c1.4,0,1.54-.37,1.54-2.49,0-1.49-.2-1.92-1.49-1.92h-.61v4.41Z"/><path class="cls-1" d="m144.24,12.49c0,.68,0,1.64,1.07,1.64s1.07-.96,1.07-1.64v-3.26h.46v3.6c0,1.34-.71,1.69-1.53,1.69s-1.53-.35-1.53-1.69v-3.6h.46v3.26Z"/><path class="cls-1" d="m150.04,9.22l1.63,5.19h-.49l-.42-1.37h-2.05l-.41,1.37h-.46l1.65-5.19h.55Zm.6,3.44l-.89-2.93h-.01l-.88,2.93h1.79Z"/><path class="cls-1" d="m153.58,9.61h-1.28v-.39h3.02v.39h-1.28v4.8h-.46v-4.8Z"/><path class="cls-1" d="m158.87,9.22v.39h-1.91v1.94h1.82v.39h-1.82v2.08h1.96v.39h-2.42v-5.19h2.37Z"/><path class="cls-1" d="m162.34,9.22h1.43c.43,0,1.15.06,1.15,1.26,0,1.04-.34,1.52-1.24,1.52h-.88v2.41h-.46v-5.19Zm.46,2.39h.86c.49,0,.8-.23.8-1.04,0-.88-.38-.96-.8-.96h-.86v2Z"/><path class="cls-1" d="m166.71,11.9v2.52h-.46v-5.19h1.44c1.01,0,1.26.33,1.26,1.24,0,.65-.11,1.08-.81,1.24h0c.73.17.78.25.78,2.11,0,.2.04.4.05.6h-.44c-.04-.15-.07-1.01-.07-1.29,0-.22.14-1.22-.86-1.22h-.88Zm0-.39h.75c.7,0,1.02-.18,1.02-1.05,0-.71-.28-.85-.83-.85h-.95v1.9Z"/><path class="cls-1" d="m171.95,9.12c1.57,0,1.58,1.29,1.58,2.7s-.01,2.69-1.58,2.69-1.58-1.29-1.58-2.69.01-2.7,1.58-2.7Zm0,5c1.1,0,1.12-.93,1.12-2.31s-.01-2.31-1.12-2.31-1.12.93-1.12,2.31.01,2.31,1.12,2.31Z"/><path class="cls-1" d="m177.54,12.09h-1.06v-.39h1.52v2.59c-.46.14-.95.22-1.44.22-1.7,0-1.58-1.69-1.58-2.69s-.12-2.7,1.58-2.7c1,0,1.52.42,1.49,1.43h-.46c0-.68-.3-1.04-1.03-1.04-1.13,0-1.12,1-1.12,2.31s-.02,2.31,1.12,2.31c.4,0,.73-.06.98-.15v-1.88Z"/><path class="cls-1" d="m180.2,11.9v2.52h-.46v-5.19h1.44c1.01,0,1.26.33,1.26,1.24,0,.65-.11,1.08-.81,1.24h0c.73.17.78.25.78,2.11,0,.2.04.4.05.6h-.44c-.04-.15-.07-1.01-.07-1.29,0-.22.15-1.22-.86-1.22h-.88Zm0-.39h.75c.7,0,1.02-.18,1.02-1.05,0-.71-.28-.85-.83-.85h-.95v1.9Z"/><path class="cls-1" d="m185.77,9.22l1.63,5.19h-.49l-.42-1.37h-2.05l-.41,1.37h-.46l1.65-5.19h.55Zm.6,3.44l-.89-2.93h-.01l-.88,2.93h1.79Z"/><path class="cls-1" d="m188.7,14.41v-5.19h.79l1.54,4.69h.01l1.52-4.69h.74v5.19h-.46v-4.74h-.01l-1.54,4.74h-.54l-1.58-4.74h-.01v4.74h-.46Z"/><path class="cls-1" d="m197.57,9.22v5.19h-.46v-5.19h.46Z"/><path class="cls-1" d="m199.21,14.41v-5.19h.71l2.12,4.56h.01v-4.56h.46v5.19h-.7l-2.13-4.61h-.01v4.61h-.46Z"/><path class="cls-1" d="m102.7,28.92v-11.65h1.58l4.72,10.23.03-.03v-10.19h1.03v11.65h-1.56l-4.74-10.34-.03.03v10.31h-1.03Z"/><path class="cls-1" d="m117.66,17.28v.87h-4.24v4.35h4.04v.87h-4.04v4.68h4.35v.87h-5.38v-11.65h5.27Z"/><path class="cls-1" d="m120.5,24.6c0,1.52,0,3.68,2.37,3.68s2.37-2.16,2.37-3.68v-7.32h1.03v8.08c0,3-1.58,3.79-3.4,3.79s-3.4-.79-3.4-3.79v-8.08h1.03v7.32Z"/><path class="cls-1" d="m129.48,23.28v5.65h-1.03v-11.65h3.21c2.24,0,2.8.74,2.8,2.79,0,1.45-.24,2.42-1.8,2.77v.03c1.63.34,1.72.53,1.72,4.69,0,.45.08.9.11,1.36h-.98c-.1-.34-.15-2.27-.16-2.9-.02-.5.32-2.74-1.92-2.74h-1.95Zm0-.87h1.68c1.55,0,2.27-.4,2.27-2.35,0-1.6-.63-1.9-1.84-1.9h-2.11v4.26Z"/><path class="cls-1" d="m139.84,17.05c3.48,0,3.51,2.9,3.51,6.05s-.03,6.05-3.51,6.05-3.51-2.9-3.51-6.05.03-6.05,3.51-6.05Zm0,11.23c2.45,0,2.48-2.08,2.48-5.18s-.03-5.18-2.48-5.18-2.48,2.08-2.48,5.18.03,5.18,2.48,5.18Z"/><path class="cls-1" d="m150.4,20.23c-.03-1.44-.39-2.31-1.97-2.31-1.26,0-2.05.44-2.05,1.81,0,1.73.87,1.77,2.19,2.73,1.43,1.03,2.9,1.34,2.9,3.6,0,2.08-1.06,3.1-3.09,3.1-2.27,0-3.29-1.23-3.19-3.5h1.06c0,1.29.1,2.63,2.18,2.63,1.35,0,2.01-.73,2.01-2.06,0-1.58-1.05-2.03-2.72-3.06-2.26-1.39-2.35-2.08-2.37-3.24-.02-2.02,1.26-2.85,3.16-2.85,2.42,0,2.93,1.5,2.93,3.18h-1.05Z"/><path class="cls-1" d="m153.29,23.1c0-3.14.03-6.05,3.51-6.05,2.82,0,2.87,2.32,2.87,3.37h-1.03c0-1.29-.35-2.5-1.84-2.5-2.45,0-2.48,2.08-2.48,5.18s.03,5.18,2.48,5.18c1.34,0,1.84-1.19,1.85-2.69h1.1c0,.84-.19,3.56-2.95,3.56-3.48,0-3.51-2.9-3.51-6.05Z"/><path class="cls-1" d="m162.7,17.28v11.65h-1.03v-11.65h1.03Z"/><path class="cls-1" d="m170.29,17.28v.87h-4.24v4.35h4.04v.87h-4.04v4.68h4.35v.87h-5.38v-11.65h5.27Z"/><path class="cls-1" d="m172.24,28.92v-11.65h1.58l4.72,10.23.03-.03v-10.19h1.03v11.65h-1.56l-4.74-10.34-.03.03v10.31h-1.03Z"/><path class="cls-1" d="m181.7,23.1c0-3.14.03-6.05,3.51-6.05,2.82,0,2.87,2.32,2.87,3.37h-1.03c0-1.29-.35-2.5-1.84-2.5-2.45,0-2.48,2.08-2.48,5.18s.03,5.18,2.48,5.18c1.34,0,1.84-1.19,1.85-2.69h1.1c0,.84-.19,3.56-2.95,3.56-3.48,0-3.51-2.9-3.51-6.05Z"/><path class="cls-1" d="m195.32,17.28v.87h-4.24v4.35h4.04v.87h-4.04v4.68h4.35v.87h-5.38v-11.65h5.27Z"/><path class="cls-1" d="m199.17,37.05v-.28c.35-.02.62-.05.62-.34,0-.1-.03-.21-.06-.31l-.15-.52h-1.83l-.16.44c-.04.11-.07.21-.07.32,0,.37.39.39.71.4v.28h-2.13v-.28c.54-.02.72-.13.92-.68l1.4-3.84-.08-.12c.6-.2.77-.29,1.03-.48.1.35.12.4.23.76l1.15,3.52c.2.62.3.78.85.84v.28h-2.42Zm-.47-4.16l-.76,2.15h1.49l-.73-2.15Zm-18.03,3.01c-.23.37-.78,1.29-2.21,1.29-1.56,0-2.57-1.15-2.57-2.66,0-1.4.86-2.78,2.61-2.78.92,0,1.41.39,1.71.62l.35-.32.03,1.57-.23.04c-.09-.3-.22-.54-.56-.91-.16-.17-.54-.51-1.08-.51-.94,0-1.67.76-1.67,2.11,0,1.14.61,2.21,1.8,2.21.91,0,1.25-.5,1.52-.89l.31.24Zm.87,1.15v-.28c.59-.05.59-.18.59-.68,0-.18,0-.37,0-.55v-2.17c0-.34,0-.67-.02-.84-.03-.31-.18-.35-.58-.39v-.28h2.22v.28c-.43.05-.59.06-.65.35-.04.16-.04.55-.04.86v.71c.45.03.76.04,1.19.04s.79,0,1.23-.04v-.87c0-.95-.02-.98-.72-1.05v-.28h2.25v.28c-.6.08-.6.08-.6,1.07v2.19c0,.2,0,.86.03,1.01.03.27.19.32.57.36v.28h-2.25v-.28c.52-.06.66-.07.7-.43.02-.15.02-.35.02-.72v-.95c-.41-.01-.75-.04-1.18-.04-.45,0-.8.01-1.24.04v.95c0,1.08.02,1.08.69,1.15v.28h-2.22Zm6.39,0v-.28c.5-.07.61-.12.62-.67v-2.76c0-1.07,0-1.11-.62-1.19v-.28h2.15v.28c-.61.06-.61.09-.61,1.19v2.09c0,.18,0,.76.02.92.04.31.18.39.59.42v.28h-2.15Zm-14.75,0v-.28c.51-.07.61-.12.62-.67v-2.76c0-1.07,0-1.11-.62-1.19v-.28h2.15v.28c-.61.06-.61.09-.61,1.19v2.09c0,.18,0,.76.02.92.03.31.18.39.58.42v.28h-2.15Zm-3.26,0v-.28c.65-.05.65-.07.66-1.03v-2.6l-1.81,3.98h-.46l-1.66-4.03-.04,3.04c0,.51.06.6.61.65v.28h-1.8v-.28c.42-.02.58-.08.61-.43.02-.14.04-.58.04-.86l.07-2.17c0-.17,0-.42,0-.6,0-.51-.1-.55-.56-.56v-.28h1.63l1.62,3.93,1.78-3.93h1.58v.31c-.62.04-.62.1-.62.91v2.14c0,.36,0,.79.03,1.06.03.38.18.45.59.49v.28h-2.26Zm32,0v-.28c.43-.02.59-.03.65-.32.07-.34.1-3.42.1-3.95-.29-.26-.4-.32-.75-.35v-.28h1.56c.43.62.53.75,1.29,1.7l1.45,1.79v-2.32c0-.82-.03-.86-.85-.89v-.28h2.04v.28c-.57,0-.62.13-.62.97l-.07,4h-.31l-.46-.58c-.23-.29-.47-.59-.7-.87l-2.04-2.52v2.68c0,.84.05.87.85.95v.28h-2.11Zm-43.2-2.59c0,1.79-1.22,2.73-2.59,2.73-1.51,0-2.68-1.09-2.68-2.74,0-1.42.95-2.69,2.61-2.68,1.57,0,2.67,1.12,2.67,2.69Zm-2.59,2.25c.3,0,.71-.15,1.03-.64.36-.56.44-1.08.42-1.75-.02-.66-.21-1.24-.59-1.65-.17-.18-.49-.44-.93-.43-.43,0-.75.27-.91.46-.37.41-.54,1-.54,1.66s.09,1.19.47,1.74c.34.48.75.61,1.04.61Zm3.11.06v.28h2.14v-.28c-.54-.05-.6-.1-.62-.67v-1.48h.58c.58,0,.88.06.92.64h.25v-1.71h-.25c-.03.56-.19.61-.81.61h-.68v-1.79c.19-.02.29-.03.62-.03,1.02,0,1.34,0,1.48.81h.26l-.08-1.27h-3.8v.28c.37.04.54.06.59.3.03.16.04.73.04.94v1.82c0,.14-.01.76-.01.89-.02.57-.08.62-.62.67Zm-44.51.25v-.28c.5-.06.61-.12.62-.67v-2.76c0-1.08,0-1.11-.62-1.2v-.28h2.15v.28c-.61.06-.61.09-.61,1.2v2.09c0,.18,0,.76.02.92.04.31.18.39.59.42v.28h-2.15Zm22.82,0v-.28c.5-.06.61-.12.61-.67v-2.76c0-1.08,0-1.11-.61-1.2v-.28h2.15v.28c-.61.06-.61.09-.61,1.2v2.09c0,.18,0,.76.02.92.04.31.18.39.59.42v.28h-2.15Zm-29.12,0v-.28c.43-.02.59-.03.65-.32.07-.35.09-3.42.1-3.95-.29-.26-.4-.32-.75-.34v-.28h1.56c.43.62.53.76,1.29,1.7l1.44,1.79v-2.32c0-.82-.03-.87-.85-.89v-.28h2.04v.28c-.56,0-.62.12-.62.97l-.08,4h-.3l-.46-.58c-.24-.3-.47-.58-.71-.87l-2.05-2.52v2.69c0,.84.06.87.85.95v.28h-2.11Zm24.84-1.61l.27-.03c.28.84.76,1.3,1.54,1.3.55,0,1.04-.23,1.04-.79,0-.59-.56-.82-.82-.92-.21-.08-.42-.15-.63-.23-.42-.15-1.23-.48-1.23-1.49s.76-1.51,1.65-1.51c.35,0,.75.08,1.19.36l.32-.23.17,1.54-.26.05c-.09-.34-.16-.49-.36-.77-.25-.32-.6-.48-1.01-.48-.55,0-.87.27-.87.68,0,.61.61.82,1.19,1.01.29.1.54.18.75.3.41.24.75.7.75,1.32,0,.9-.74,1.64-1.83,1.64-.71,0-1.14-.28-1.34-.41l-.43-.31-.08-1.02Zm8.51,1.61v-.22c.48,0,.61-.18.61-.6v-3.82h-.65c-.58,0-.97-.02-1.02.9h-.27l.04-1.45h4.7l.04,1.45h-.27c-.04-.93-.43-.9-1.02-.9h-.64v3.82c0,.41.13.59.61.6v.22h-2.14Zm-37.32-5.18v.28c-.69.05-.69.07-.69,1.17v1.22c0,.63.01,1.17.34,1.66.27.39.72.43.94.43.74,0,1.15-.38,1.33-.99.15-.48.15-1.39.15-1.99,0-.19,0-.81,0-.98-.03-.47-.27-.49-.73-.52v-.28h1.97v.28c-.48,0-.59.1-.62.62,0,.12-.07,1.56-.07,1.78-.01.39-.04.78-.12,1.16-.35,1.4-1.71,1.47-2.07,1.47-.29,0-.87-.05-1.36-.37-.77-.52-.78-1.3-.78-2.13v-1.17c0-.56,0-.81-.02-.94-.04-.33-.21-.39-.59-.41v-.28h2.33Zm18.36,0v.28c-.5.07-.57.21-.99,1.24l-1.58,3.76h-.28l-1.42-3.82c-.35-.98-.4-1.1-.92-1.18v-.28h2.46v.28c-.42.02-.69.03-.69.33,0,.15.04.27.18.7l.9,2.63,1.06-2.72c.06-.18.15-.42.15-.55,0-.38-.36-.39-.69-.4v-.28h1.81Zm24.55,5.18v-.28c.41-.04.56-.06.66-.16.12-.11.12-.25.12-.81v-.91l-1.37-2.14c-.37-.56-.38-.57-.88-.6v-.29h2.7v.29c-.54.02-.78.03-.78.28,0,.14.1.3.23.52l.79,1.3.73-1.29c.13-.26.21-.41.21-.53,0-.25-.21-.26-.57-.28v-.29h2.02v.29c-.52.02-.67.17-1.27,1.13l-.81,1.35v1.08c0,.94,0,1.01.78,1.05v.28h-2.55Zm-20.12,0c0-.37.06-.99.11-1.34h-.25c-.18.93-.7.88-1.45.88-.69,0-.83-.18-.83-.52v-1.45h.56c.64,0,.82.05.82.63h.25v-1.71h-.25c-.05.46-.14.61-.81.61h-.56v-1.83h.63c.88,0,1.2.06,1.32.77h.23l-.03-1.23h-3.69v.28c.37.04.53.06.58.31.04.16.04.73.04.93v1.82c0,.14,0,.76-.01.89-.01.57-.08.62-.62.67v.29h3.95Zm68.58-2.25v.28c-.47.03-.47.16-.48,1.14v.39c-.4.25-.98.61-1.99.61-1.78,0-2.64-1.35-2.64-2.71,0-1.66,1.12-2.74,2.53-2.74.88,0,1.39.33,1.81.59l.27-.31.04,1.62-.21.04c-.11-.31-.26-.66-.65-1.06-.17-.17-.5-.38-1.03-.38-.9,0-1.66.76-1.66,2.25,0,1.19.59,2.21,1.59,2.21.58,0,.87-.4.9-.43.09-.14.12-.26.11-.49-.02-.66-.11-.67-.69-.73v-.28h2.09Zm-66.18-.53c.14.03.34.05.48.05.59,0,1.03-.46,1.06-.87.03-.6-.27-1.12-1.22-1.12-.13,0-.21,0-.32.03v1.91Zm0,1.13c0,1.19,0,1.35.63,1.36v.29h-2.16v-.29c.56-.05.61-.13.62-.69,0-.22,0-.46,0-.67v-1.88c0-.62,0-.84-.03-1.01-.04-.29-.18-.34-.6-.38v-.28h2.34c1.28,0,1.68.62,1.68,1.34,0,.5-.31,1.15-1.02,1.37l.92,1.6c.33.61.51.75.93.81v.17c-.11,0-.22.01-.34.01-.98,0-1.38-.33-1.79-1.21l-.29-.61c-.31-.65-.41-.61-.9-.62v.67Z"/></svg>